<svg width="76" height="63" viewBox="0 0 76 63" fill="none" xmlns="http://www.w3.org/2000/svg">
<path d="M42.5975 31.6974L49.9089 40.0548L59.7415 46.3375L61.4517 31.7502L59.7415 17.4919L49.7207 23.0109L42.5975 31.6974Z" fill="#00832D"/>
<path d="M0.169922 44.9798V57.4103C0.169922 60.2487 2.47359 62.5529 5.3125 62.5529H17.743L20.317 53.1609L17.743 44.9798L9.21486 42.4058L0.169922 44.9798Z" fill="#0066DA"/>
<path d="M17.7428 0.841858L0.169678 18.415L9.21516 20.983L17.7428 18.415L20.27 10.3454L17.7428 0.841858Z" fill="#E94235"/>
<path d="M0.169922 44.9855H17.743V18.4148H0.169922V44.9855Z" fill="#2684FC"/>
<path d="M70.9671 8.28249L59.7415 17.4922V46.3373L71.0139 55.5829C72.7013 56.9047 75.1697 55.6999 75.1697 53.555V10.269C75.1697 8.10026 72.6425 6.90138 70.9671 8.28249Z" fill="#00AC47"/>
<path d="M42.5976 31.6974V44.9798H17.743V62.5529H54.5989C57.4379 62.5529 59.7415 60.2487 59.7415 57.4103V46.3375L42.5976 31.6974Z" fill="#00AC47"/>
<path d="M54.5989 0.841858H17.743V18.415H42.5976V31.6973L59.7415 17.4919V5.98444C59.7415 3.14552 57.4379 0.841858 54.5989 0.841858Z" fill="#FFBA00"/>
</svg>
